<svg width="144" height="7.68" version="1.1" viewBox="0 0 144 7.68" xmlns="http://www.w3.org/2000/svg">
 <path d="m-0.474 6.3192v-2.0683h1.4421c0.79313 0 4.0885 0.43563 7.323 0.96807 5.2254 0.86016 7.083 0.94165 16.664 0.73108 10.214-0.22447 19.108-0.96124 48.928-4.0531 6.3317-0.6565 13.738-1.0264 23.907-1.1938 17.658-0.29075 28.08 0.35796 42.966 2.6745l3.6213 0.5635v4.4465h-144.85z" style="fill:#0a548d;stroke-width:.38465"/>
 <g>
  <path d="m144.23 1.3729v2.1663h-1.5234c-0.83788 0-4.3192-0.45627-7.7362-1.0139-5.5203-0.90091-7.4826-0.98627-17.605-0.76572-10.79 0.2351-20.186 1.0068-51.688 4.2451-6.6889 0.68761-14.514 1.075-25.256 1.2504-18.654 0.30453-29.664-0.37492-45.391-2.8012l-3.8256-0.5902v-4.6571h153.02z" style="fill:#ececec;stroke-width:.40461"/>
 </g>
</svg>
