<?xml version="1.0" standalone="no"?>
<!DOCTYPE svg PUBLIC "-//W3C//DTD SVG 1.1//EN" "http://www.w3.org/Graphics/SVG/1.1/DTD/svg11.dtd" >
<svg>
<metadata>
Created by FontForge 20120731 at Thu Jul 19 20:50:39 2018
 By www
Shara
</metadata>
<defs>
<font id="GelPen" horiz-adv-x="457" >
  <font-face 
    font-family="GelPen"
    font-weight="500"
    font-stretch="normal"
    units-per-em="1000"
    panose-1="2 0 6 3 0 0 0 0 0 0"
    ascent="800"
    descent="-200"
    x-height="493"
    cap-height="689"
    bbox="-86.9032 -283.6 877.676 789.067"
    underline-thickness="50"
    underline-position="-100"
    unicode-range="U+0020-3000"
  />
<missing-glyph horiz-adv-x="364" 
d="M66 33h199v600h-199v-600zM33 0v666h265v-666h-265z" />
    <glyph glyph-name=".notdef" horiz-adv-x="364" 
d="M66 33h199v600h-199v-600zM33 0v666h265v-666h-265z" />
    <glyph glyph-name=".null" horiz-adv-x="0" 
 />
    <glyph glyph-name="nonmarkingreturn" horiz-adv-x="333" 
 />
    <glyph glyph-name="space" unicode=" " horiz-adv-x="300" 
 />
    <glyph glyph-name="exclam" unicode="!" horiz-adv-x="201" 
d="M207 657q-5 -20 -26 -98q-15 -59 -21 -93q-7 -46 -20 -149.5t-23 -158.5q-4 -20 -21 -32t-37 -8t-32 21t-8 37q10 54 22.5 157t20.5 149q5 33 23 102q20 77 24 95q5 20 22.5 31t37.5 6.5t31 -22t7 -37.5zM90 8q0 -21 -14.5 -35.5t-35.5 -14.5t-35.5 14.5t-14.5 35.5
t14.5 35.5t35.5 14.5t35.5 -14.5t14.5 -35.5z" />
    <glyph glyph-name="quotedbl" unicode="&#x22;" horiz-adv-x="260" 
d="M149 668l-54 -229q-5 -20 -23 -31t-38 -6t-31 23t-6 38l54 227q5 21 22.5 31.5t38 6t31 -22t6.5 -37.5zM265 640q-27 -106 -44 -259q-3 -20 -19 -33t-36.5 -10.5t-33.5 18.5t-11 37q19 155 48 271q5 20 22.5 31t37.5 5.5t31 -23t5 -37.5z" />
    <glyph glyph-name="numbersign" unicode="#" horiz-adv-x="571" 
d="M303 327l26 93l-59 -4l-8 -27l-19 -66q25 1 58 4h2zM277 225q-37 -2 -67 -3q-19 -57 -39 -105q-7 -19 -26.5 -27t-38.5 -0.5t-27 27t0 38.5q13 32 25 67q-6 1 -13 1q-21 1 -34.5 16.5t-12.5 36.5t16.5 34.5t36.5 12.5l41 -2l26 89q-50 -3 -93 -4q-20 -1 -35 13.5t-16 35
t13.5 35.5t35.5 16q56 1 125 5q32 110 55 177q6 20 24.5 29t38.5 2.5t29 -25t2 -38.5l-43 -138l57 4q28 100 44 172q5 20 22.5 31t37.5 6.5t31 -22t7 -37.5q-15 -63 -36 -143q33 2 63 3q21 1 36 -13t16 -35t-13 -36t-35 -16q-42 -2 -95 -5l-26 -93q60 3 104 4q21 0 36 -14.5
t15 -35t-14.5 -35.5t-34.5 -15q-52 -1 -133 -6l-11 -47q-6 -24 -17 -76q-11 -55 -19 -85q-5 -20 -23 -30.5t-38 -5t-30.5 23.5t-4.5 38q7 29 18 83t16 76z" />
    <glyph glyph-name="dollar" unicode="$" horiz-adv-x="468" 
d="M267 429q17 76 28 147q-23 1 -43 -3q-29 -5 -41 -17q-10 -10 -8 -29q2 -21 17.5 -43t46.5 -55zM317 227q-24 -80 -55 -167l25 4q40 10 58 28q14 14 11 38q-6 49 -39 97zM387 518q-14 -84 -37 -173q93 -101 106 -203q9 -72 -41 -121q-38 -38 -104 -54q-41 -9 -87 -10
l-21 -53q-7 -20 -26 -28t-38.5 -0.5t-27.5 26.5t0 38l10 27q-11 3 -21 7q-69 25 -96 48q-9 8 -18 18l-24 28l-21 24q-13 16 -11.5 36.5t17 34t36 12t34.5 -16.5l25 -29l16 -20q5 -6 10 -10q14 -12 66 -31q10 -4 23 -6q49 135 82 254l-19 19q-18 17 -23 23l-21 22
q-15 16 -21 24l-17 26q-12 16 -17.5 28t-10.5 27.5t-7 31.5q-7 66 37 110q35 34 94 45q34 6 72 3q3 33 4 66q1 21 16 35t36 13t35 -16t13 -36q-2 -45 -6 -89q9 -5 17 -11q18 -12 32 -36l8 -14q3 -6 5 -8q12 -17 8.5 -37.5t-20.5 -32.5q-16 -11 -35.5 -8.5t-31.5 17.5z" />
    <glyph glyph-name="percent" unicode="%" horiz-adv-x="845" 
d="M270 522q-16 1 -30 3q-47 6 -73 24q-2 1 -4 3q-35 -46 -47 -100q-8 -38 2 -55q7 -12 37 -10q27 2 54 20.5t44 47.5q21 35 17 67zM273 671q19 -11 36.5 -26t22.5 -22l1 -1q10 0 17 1q19 2 66 13t67 18q1 0 2.5 1t7.5 5.5t15 10.5q51 34 92 6q25 -17 26 -50q1 -16 -5 -36
q-7 -24 -26 -59q-12 -23 -31 -53q-3 -6 -7.5 -12.5t-6.5 -10.5l-3 -6l-81 -139l-96 -167q-42 -73 -75 -142q-9 -18 -28.5 -25t-38 2t-25.5 28.5t2 38.5q33 69 75 144l98 169q56 95 81 141q2 2 4.5 6.5t7.5 12t8 12.5l13 21q-76 -21 -122 -27q4 -62 -30 -120q-28 -49 -76 -82
t-103 -36q-91 -5 -129 59q-29 50 -14 126q13 61 51 120t84 83q9 4 19 7q18 10 41 10q8 -1 15 -2q28 3 45 -19zM617 357q12 4 25 1q116 -24 172 -97t31 -157q-24 -82 -109 -118q-84 -36 -193 -3q-79 24 -110 86q-29 56 -10 123q17 59 65 105.5t111 57.5q9 2 18 2zM653 250
q-7 1 -17 3q-1 0 -5 1t-7 2l-7 1q-33 -6 -60.5 -32.5t-36.5 -59.5q-9 -30 2 -51q12 -24 49 -35q56 -18 94.5 -9.5t58 25t25.5 37.5q6 11 2.5 27.5t-11 32t-29 31.5t-52.5 27h-6z" />
    <glyph glyph-name="ampersand" unicode="&#x26;" horiz-adv-x="600" 
d="M389 81q-46 46 -85 99t-88 130l-12 -22q-76 -142 -22 -200q36 -37 119 -31q52 4 88 24zM533 90q23 -16 48 -30q18 -10 24 -30t-4 -38t-30 -24t-38 4q-34 19 -65 42q-64 -50 -161 -57q-128 -9 -197 63q-105 110 6 315q17 31 42 72q-24 43 -30 63q-11 30 -13 75t7 90
q4 23 13.5 44.5t25 43t42 32.5t59.5 8q49 -5 78 -37q25 -27 30 -69q7 -53 -18 -119q-14 -37 -67 -118l-10 -15l24 -39q92 -145 155 -209q29 68 22 185q-1 21 13 36.5t34.5 16.5t36 -13t16.5 -34q8 -156 -39 -249zM221 506q29 45 37 68q16 42 13 71q-1 10 -4 13q-4 4 -15 5
q-5 1 -9.5 -1t-11.5 -13.5t-11 -33.5q-6 -33 -5 -62t6 -47z" />
    <glyph glyph-name="quotesingle" unicode="'" horiz-adv-x="161" 
d="M168 702q-7 -88 -9 -225q0 -21 -15 -35t-36 -14t-35 15t-14 36q2 139 9 231q2 20 17.5 33.5t36 12t34 -17t12.5 -36.5z" />
    <glyph glyph-name="parenleft" unicode="(" horiz-adv-x="267" 
d="M268 655q-33 -58 -48.5 -88t-36 -77t-31.5 -89q-23 -87 -9 -216q14 -136 60 -198q4 -6 17 -16q35 -24 36 -25q16 -14 18 -34.5t-11.5 -36.5t-34 -18t-36.5 11q-4 4 -9 8l-11 7q-6 4 -10 7q-26 19 -41 39q-61 84 -78 245q-15 147 13 253q12 48 35.5 102t39.5 85l49 89
q10 18 30 24t38 -4t24 -30t-4 -38z" />
    <glyph glyph-name="parenright" unicode=")" horiz-adv-x="187" 
d="M90 696q208 -404 2 -794q-9 -19 -29 -25t-38.5 3.5t-24.5 29.5t4 38q181 345 -2 702q-10 19 -3.5 38.5t25 29t38 3t28.5 -24.5z" />
    <glyph glyph-name="asterisk" unicode="*" horiz-adv-x="385" 
d="M-16 479q-15 4 -25 16t-12 28q-2 20 11.5 36t34.5 18q24 2 52 5q-44 43 -79 82q-14 15 -13 35.5t16.5 34.5t36 13t34.5 -17q36 -40 83 -84q0 26 -1 50q-1 20 13.5 35t35 16t35.5 -13.5t16 -35.5q0 -20 1 -41l94 57q18 11 38 5.5t30.5 -23.5t5 -38t-23.5 -30l-24 -14
q18 -2 31 -15t15 -31q2 -21 -11.5 -36.5t-34.5 -17.5q-30 -2 -66 -6l45 -40q16 -14 17 -34q1 -21 -13 -36.5t-34.5 -16.5t-35.5 13l-32 28v-28q0 -21 -14.5 -35.5t-35.5 -14.5t-35.5 14.5t-14.5 35.5v23v26v23q-41 -33 -77 -66q-16 -14 -36.5 -13t-34.5 16.5t-13 36t16 34.5
z" />
    <glyph glyph-name="plus" unicode="+" horiz-adv-x="524" 
d="M239 211q-118 0 -207 -8q-20 -2 -36 11.5t-18 34t11.5 36.5t34.5 18q89 7 211 8q-6 92 -18 167q-4 20 8 37t32.5 20.5t37.5 -8.5t20 -33q14 -81 20 -183q129 -1 146 -1q21 0 35.5 -14.5t14.5 -35.5t-14.5 -35.5t-35.5 -14.5q-25 0 -142 1q1 -35 2 -99t1 -85t-14 -36
t-35 -15t-36 14t-15 35q0 23 -1 87.5t-2 98.5z" />
    <glyph glyph-name="comma" unicode="," horiz-adv-x="192" 
d="M187 79q2 -17 4 -37q5 -33 7 -48q7 -68 -8 -108q-9 -22 -29 -46q-1 -2 -9.5 -12t-12.5 -16q-12 -17 -32.5 -20.5t-37.5 8.5t-20.5 32.5t8.5 37.5q1 1 27 33q10 12 12 19q7 17 2 62q-1 13 -6 44q-4 29 -5 43q-1 21 12.5 36.5t34 17t36 -12t17.5 -33.5z" />
    <glyph glyph-name="hyphen" unicode="-" horiz-adv-x="281" 
d="M38 325q61 -6 198 -1q21 1 36 -13.5t16 -35t-13.5 -35.5t-34.5 -16q-148 -5 -212 1q-20 2 -33.5 18t-11.5 36.5t18 34t37 11.5z" />
    <glyph glyph-name="period" unicode="." horiz-adv-x="100" 
d="M107 51q0 -21 -14.5 -35.5t-35.5 -14.5t-35.5 14.5t-14.5 35.5t14.5 35.5t35.5 14.5t35.5 -14.5t14.5 -35.5z" />
    <glyph glyph-name="slash" unicode="/" horiz-adv-x="288" 
d="M293 691q-28 -111 -66 -230t-91 -271t-77 -226q-7 -19 -25.5 -28.5t-38 -3t-29 25t-3.5 38.5l77 224q53 150 90.5 267.5t66.5 227.5q5 20 22.5 31t37.5 5.5t31 -23t5 -37.5z" />
    <glyph glyph-name="zero" unicode="0" horiz-adv-x="485" 
d="M383 449q-6 36 -16 64q-28 77 -88 84q-23 3 -36 -2t-30 -22q-55 -53 -83 -177q-26 -116 -13 -209q6 -36 26.5 -69.5t48.5 -50.5q52 -33 96 21q58 69 77.5 150t11.5 183q-1 15 6 28zM478 311q-12 -165 -112 -287q-34 -40 -74.5 -57t-79 -12t-73.5 27q-47 30 -79 82
q-33 52 -41 109q-16 112 14 245q34 152 110 227q33 32 67 44.5t81 7.5q121 -14 170 -150q29 -80 31 -200q0 -21 -14 -36z" />
    <glyph glyph-name="one" unicode="1" horiz-adv-x="343" 
d="M350 625q-8 -85 -28 -181q-21 -95 -51.5 -209.5t-42.5 -170.5q-5 -20 -22.5 -31t-37.5 -6.5t-31 22t-7 37.5q14 64 44 176t49 202q19 87 27 171q2 20 18 33.5t36.5 11.5t34 -18t11.5 -37z" />
    <glyph glyph-name="two" unicode="2" horiz-adv-x="550" 
d="M69 634q138 79 234 49q63 -20 89 -79.5t15 -147.5q-17 -131 -129 -248q53 -5 237 -35q20 -3 32.5 -20t9 -37t-20.5 -32.5t-37 -8.5q-14 2 -56 9t-59 10l-54 7q-35 5 -58 7t-52.5 3.5t-55.5 1.5v-1q-27 -18 -81 -47q-34 -18 -54 -27q-15 -6 -26 -9q-11 -2 -20 -1
q-23 1 -38 18q-35 41 -13 85q13 27 49 46q42 22 101 30q24 3 49 4q70 52 119 119q48 68 57 138q14 104 -34 119q-24 8 -65 -2t-89 -37q-18 -11 -38 -5.5t-30.5 23.5t-5 38t23.5 30z" />
    <glyph glyph-name="three" unicode="3" horiz-adv-x="485" 
d="M14 549q22 90 90.5 142.5t149.5 57.5q53 4 100 -13.5t81 -60t37 -104.5q5 -98 -64 -160q59 -43 78 -123q12 -39 3.5 -88t-39.5 -83q-33 -36 -88.5 -57t-115.5 -26q-61 -6 -118.5 4.5t-95.5 39.5q-18 15 -36 42l-10 17q-5 8 -8 12q-13 17 -10 37q4 21 20.5 33.5t37 9
t32.5 -19.5q6 -8 13 -20l10 -15q7 -12 13 -16q18 -15 57 -22t86 -3t84.5 18.5t54.5 33.5q25 27 13 80q-6 25 -19.5 44t-28.5 26q-30 14 -55 3q-5 -2 -15 -8q-4 -3 -8 -4q-6 -3 -12 -4q-21 -4 -38 7q-22 15 -22 42q0 8 2 16l4 10q10 19 34 32q9 5 28 12q39 16 56 25
q29 17 44 40t13 59q-2 42 -32.5 65t-78.5 19q-51 -3 -93.5 -35.5t-55.5 -88.5q-5 -20 -23 -30.5t-38 -6t-30.5 22.5t-6.5 38z" />
    <glyph glyph-name="four" unicode="4" horiz-adv-x="435" 
d="M442 639q-25 -225 -93 -556q-4 -20 -21.5 -31.5t-37.5 -7.5t-31.5 21.5t-7.5 37.5q31 153 37 187q-9 1 -36 5t-54 9l-53 8q-58 10 -91 17q-21 5 -34 10q-10 3 -17 8q-20 12 -26 33q-12 41 27 74q6 5 10 7.5t5 3t1.5 1.5t1.5 2q57 66 93 117.5t63 115.5q8 19 27.5 26.5
t38.5 -0.5t26.5 -27.5t-0.5 -38.5q-29 -68 -66.5 -123.5t-91.5 -118.5q21 -4 50 -8q24 -5 52 -9l56 -8q27 -4 35 -6q23 137 37 263q3 20 19 33t36.5 10.5t33.5 -18.5t11 -37z" />
    <glyph glyph-name="five" unicode="5" horiz-adv-x="482" 
d="M164 679q49 3 133 13q99 13 138 16q20 2 36 -11.5t18 -34t-11.5 -36.5t-34.5 -18q-36 -3 -134 -15q-56 -7 -79 -9q-10 -46 -45 -126q12 4 23 7q63 15 114.5 -7.5t83.5 -70.5q29 -42 39.5 -95.5t1.5 -104.5q-11 -70 -28 -98q-26 -44 -70.5 -69.5t-96.5 -32.5
q-106 -16 -187 29q-18 10 -32 22l-23 18q-8 8 -18 23l-12 19q-3 5 -12 24.5t-10 21.5q-9 19 -2.5 38.5t25.5 28.5t38.5 2.5t28.5 -25.5q3 -7 9 -19l8 -16q2 -4 6.5 -12t7.5 -11t8 -8.5t11.5 -9t14.5 -8.5q52 -29 124 -19q71 11 96 54q7 13 16 64q5 33 -2 68t-24 60
q-34 50 -91 36q-27 -6 -59 -24l-1 -1l-2 -2l-1 -1.5t-2.5 -3t-4 -4.5t-5.5 -6q-33 -36 -71 -34q-11 1 -20 5.5t-13.5 10t-8 12t-4 9.5t-1.5 5q-1 7 0 15q0 6 2 13q3 10 8 25q11 33 29 76q6 16 19.5 46t20.5 49t12 38q-12 13 -13 31q-1 21 12.5 36.5t34.5 16.5z" />
    <glyph glyph-name="six" unicode="6" 
d="M178 109q30 -12 67 -10t67 18q70 36 47 111q-7 23 -22 30q-16 8 -42 2q-29 -5 -54.5 -23t-35.5 -36q-4 -9 -6 -17.5t-5 -24.5t-8 -33q-2 -10 -8 -17zM350 637q-83 -40 -150 -132q-30 -40 -56.5 -100t-35.5 -118q-7 -41 -4 -74q6 21 13 34q21 41 65.5 71.5t92.5 39.5
q59 12 105 -10q55 -26 75 -90q23 -77 -6 -138q-29 -60 -91 -92q-56 -29 -121 -30q-66 0 -123 30q-39 22 -64.5 55t-35 69t-11.5 76t6 76q12 70 43 140t68 121q82 111 186 162q19 9 38.5 2.5t28.5 -25.5t2.5 -38.5t-25.5 -28.5z" />
    <glyph glyph-name="seven" unicode="7" horiz-adv-x="484" 
d="M71 672h35q27 0 71 0.5t78 0.5q72 0 113 -1q26 0 41 -1q9 -1 16 -2q5 -1 9 -2q12 -4 21 -11q38 -34 36 -82q-1 -33 -22 -70q-13 -22 -36 -50.5t-25 -30.5q-68 -100 -104 -194t-40 -201q-1 -20 -16 -34.5t-35.5 -13.5t-35 16t-13.5 36q4 123 45.5 230.5t116.5 216.5
q2 5 29 37q19 23 27 38q6 10 8 18h-24q-40 1 -111 1q-34 0 -78.5 -0.5t-72.5 -0.5h-35q-21 0 -35 15t-14 36t15 35t36 14z" />
    <glyph glyph-name="eight" unicode="8" horiz-adv-x="490" 
d="M230 435l26 11q74 28 95 37q35 16 41 23q3 4 4.5 6.5t0.5 3.5v1q-1 5 -10 15q-22 22 -64 39q-15 4 -28 8q-27 3 -38 5q-3 0 -6 1q-18 1 -35 -1q-16 -3 -36.5 -14.5t-34.5 -26.5q-13 -13 -14 -23q-1 -7 5 -15q27 -35 94 -70zM425 629q19 -13 32 -26q33 -33 39 -71
q8 -48 -28 -90q-20 -25 -77 -50q-19 -8 -49 -20q103 -73 121 -197q9 -54 -11 -96q-11 -24 -28.5 -42t-33.5 -27t-40 -16t-35.5 -9t-34.5 -5q-60 -7 -104 0q-68 9 -118.5 45t-72.5 89q-23 56 -5.5 116t71.5 110q26 23 68 46q-38 27 -61 57q-34 43 -26 94q7 39 39 74
q26 27 61.5 46.5t67.5 24.5q53 9 117 -6q19 -3 32 -8l7 -2l42 -15q18 -6 27 -22zM224 325q-76 -32 -105 -59q-64 -58 -41 -115q10 -25 39 -45.5t73 -27.5q31 -4 78 2q45 5 65 13.5t29 27.5q6 14 3 40q-9 55 -36 87.5t-75 60.5z" />
    <glyph glyph-name="nine" unicode="9" 
d="M425 584q11 -3 20 -10q11 -9 16 -23q2 -5 2 -10q1 -4 1 -9q0 -41 -20 -79q-7 -38 -11 -58v-4v-6l-1 -11l-4 -12q-1 -4 -3 -8v-1l-10 -33q-50 -179 -127 -317q-11 -19 -30.5 -24.5t-38 5t-24 30t4.5 37.5q71 127 116 285q-17 -8 -34 -15q-46 -16 -93 -18.5t-95.5 17.5
t-74.5 67q-34 62 -3 141q25 62 83 115t123 70q82 21 140 -25q43 -34 63 -104zM336 532l-6 20q-4 13 -5.5 17.5t-4.5 12.5t-5 11.5t-6 8t-9 8.5q-19 15 -53 6q-41 -11 -81 -48q-41 -36 -57 -77q-14 -35 -2 -56q13 -24 49 -30.5t92 11.5q71 25 102 74l1 4l3 13q-13 10 -18 25z
" />
    <glyph glyph-name="colon" unicode=":" horiz-adv-x="188" 
d="M186 455q0 -21 -14.5 -35.5t-35.5 -14.5t-35.5 14.5t-14.5 35.5t14.5 35.5t35.5 14.5t35.5 -14.5t14.5 -35.5zM195 67q0 -21 -14.5 -35.5t-35.5 -14.5t-35.5 14.5t-14.5 35.5t14.5 35.5t35.5 14.5t35.5 -14.5t14.5 -35.5z" />
    <glyph glyph-name="semicolon" unicode=";" horiz-adv-x="191" 
d="M198 54q-1 -9 -1.5 -31.5t-1.5 -32.5l-3 -25q-1 -15 -5 -26q-11 -39 -63 -106q-12 -16 -32.5 -18.5t-37 10t-19 33t10.5 37.5q39 51 45 71q3 9 7 94q1 20 16.5 34t36 13t34.5 -16.5t13 -36.5zM183 443q0 -21 -14.5 -35.5t-35.5 -14.5t-35.5 14.5t-14.5 35.5t14.5 35.5
t35.5 14.5t35.5 -14.5t14.5 -35.5z" />
    <glyph glyph-name="less" unicode="&#x3c;" horiz-adv-x="553" 
d="M534 423q-49 -26 -103 -51l-127 -59l-105 -47l-49 -23q34 -15 87 -35l122 -44l85 -31q20 -8 28 -27t0.5 -38.5t-26.5 -27.5t-38 -1q-12 5 -85.5 31t-121.5 45q-75 28 -119 50q-28 14 -46 25q-28 20 -36 42q-8 20 -2.5 38t20.5 29q12 9 32 14q1 0 19 4l4 1l84 38l103 47
l125 57q53 25 101 51q19 10 38.5 4t29.5 -24.5t4 -38t-24 -29.5z" />
    <glyph glyph-name="equal" unicode="=" horiz-adv-x="574" 
d="M19 404q33 0 123.5 1t137.5 0.5t121 -4t136 -10.5q21 -3 33.5 -19t10 -37t-18.5 -33.5t-37 -10.5q-59 7 -129.5 10.5t-116 4t-135 -0.5t-125.5 -1q-21 0 -35.5 14.5t-14.5 35.5t14.5 35.5t35.5 14.5zM8 170q5 0 252 3q155 2 244 13q21 2 37 -10.5t18.5 -33.5t-10 -37
t-33.5 -19q-94 -11 -255 -13q-246 -3 -249 -3q-21 -1 -36 13.5t-16 35t13.5 35.5t34.5 16z" />
    <glyph glyph-name="greater" unicode="&#x3e;" horiz-adv-x="543" 
d="M86 492q42 -20 147 -85q88 -54 141 -79q20 -9 86 -36l42 -17l13 -6q4 -1 6 -2t4 -3q3 -1 5 -3q4 -3 7 -6q10 -12 13 -27q6 -45 -37 -70q-19 -11 -52 -18q-19 -4 -54 -9q-38 -6 -52 -8q-118 -22 -282 -94q-19 -8 -38 -0.5t-27.5 26.5t-1 38t26.5 28q175 76 304 100
q10 2 23 4q-18 8 -28 13q-58 27 -151 83q-99 61 -141 83q-18 9 -24.5 28.5t3 38t29 25t38.5 -3.5z" />
    <glyph glyph-name="question" unicode="?" horiz-adv-x="436" 
d="M50 486q0 3 -2 10q-3 16 -4 17q-6 29 -1 52q11 46 39 80.5t64.5 51t79 19t81 -10t71.5 -41.5t49 -70q41 -101 -27 -206q-17 -26 -55 -72q-34 -41 -47 -61q-4 -7 -7.5 -14.5t-8 -20t-9.5 -24.5q-9 -19 -28 -26.5t-38 1t-26.5 27.5t0.5 38q1 2 7 17.5t12.5 30t13.5 25.5
q16 25 54 71q36 44 49 63q20 31 24.5 56t-6.5 57q-13 32 -42.5 47.5t-60.5 13t-57.5 -22t-33.5 -51.5q-1 -1 1 -9q1 -3 1.5 -5t1 -5t1.5 -5q2 -12 4 -21q2 -20 -10.5 -36.5t-33 -19t-37 10t-19.5 33.5zM296 48q0 -21 -14.5 -35.5t-35.5 -14.5t-35.5 14.5t-14.5 35.5
t14.5 35.5t35.5 14.5t35.5 -14.5t14.5 -35.5z" />
    <glyph glyph-name="at" unicode="@" horiz-adv-x="870" 
d="M503 327q0 17 2 33q5 44 26 72q-5 13 -12 18q-15 11 -47 -5q-45 -20 -75 -69.5t-23 -100.5q1 -10 3 -17q24 -16 51 -3q31 14 63 56q6 7 12 16zM618 325l-12 -22q4 -22 11 -41q17 -40 38 -46q25 -7 68 37q49 49 54 147q7 128 -80 191q-40 29 -94 37t-120 -8
q-86 -24 -154 -83q-44 -38 -77.5 -95t-44.5 -115q-24 -128 68 -192q25 -17 57 -28t55 -15t74 -10q20 -3 32.5 -19.5t10 -37t-19 -33t-37.5 -10.5q-3 1 -11 2q-47 6 -73.5 11t-68.5 20q-41 15 -75 38q-76 53 -101 129q-25 78 -9 164q14 75 56 146.5t98 120.5q85 74 194 103
q83 23 161 12q78 -12 138 -56q62 -45 94 -117t27 -161q-7 -135 -82 -211q-85 -87 -167 -63q-60 17 -95 87q-31 -29 -64 -43q-81 -37 -154 15q-33 24 -41 82q-11 88 37 165t118 110q85 40 148 -4q39 -28 53 -81q7 -6 11 -13q7 -12 7 -27q0 -11 -4 -24q-2 -7 -5 -15v-8
q-1 -24 -21 -39z" />
    <glyph glyph-name="A" unicode="A" horiz-adv-x="530" 
d="M218 337q55 -2 106 0l-17 69q-1 7 -9 50l-7 41l-42 -95q-2 -5 -3 -7q-2 -3 -5 -8zM-3 34q11 39 25 82l26 74q11 30 32 80l31 71l35 79q26 58 31 70l55 123v1q0 2 1 7t3 13q7 27 24 42v1l18 39l4 10l2 3q0 1 2 3q4 7 10 13q2 2 5.5 4.5t14 5.5t21.5 1q16 -2 26.5 -13
t12.5 -17.5t2 -11.5v-18l-3 -9l-1 -3l-4 -8l-13 -29q4 -9 8 -21q9 -28 18 -76q3 -14 14 -78q7 -40 8 -44q52 -225 127 -372q9 -19 2.5 -38.5t-25 -29t-38 -3t-29.5 24.5q-52 103 -90 228q-83 -5 -176 1q-55 -130 -83 -231q-5 -20 -23 -30.5t-38 -5t-30.5 23.5t-4.5 38z" />
    <glyph glyph-name="B" unicode="B" horiz-adv-x="580" 
d="M154 400q4 2 9 4q12 2 46 9.5t58.5 14t46.5 15.5q76 27 93 69q10 26 -24 61q-18 19 -41.5 32.5t-41.5 17.5q-10 2 -19 2.5t-21 -1.5l-20 -4q-7 -2 -25 -7t-28 -7q-4 -34 -14 -87q-15 -89 -19 -119zM443 399h2q45 -17 81 -49t51 -73q20 -47 3.5 -95.5t-65.5 -85.5
q-35 -26 -76.5 -46t-91.5 -34.5t-81.5 -21.5t-85.5 -17q-15 -3 -23 -4q-20 -4 -37 7.5t-21 31.5q-19 -25 -50 -18q-20 5 -31 22.5t-7 37.5q11 50 18 104t13 126.5t10 111.5q5 39 23 140q15 84 18 132q2 21 17.5 34.5t35.5 12.5q15 -1 26 -10q20 6 25.5 7.5t26 6t32.5 5.5
t30 0.5t34 -3.5q34 -7 70.5 -28t64.5 -50q21 -21 34.5 -45.5t19 -57.5t-9.5 -66q-17 -43 -56 -75zM265 324q-16 -4 -42.5 -9.5t-35.5 -8.5q-23 -5 -42 9q-17 -187 -31 -256q11 9 25 12l91 18q24 5 75 18.5t85.5 30t64.5 38.5q42 32 29 65q-7 18 -27 36t-48 28
q-12 5 -21.5 7.5t-21.5 3.5t-18 1t-25 -0.5t-30 -0.5q-16 0 -28 8z" />
    <glyph glyph-name="C" unicode="C" horiz-adv-x="577" 
d="M481 529q-11 16 -21 33l-18 29l-21 20l-18 4q-47 9 -82 -4t-81 -53q-22 -18 -44.5 -70t-36.5 -119q-14 -69 -13 -124t15 -81q17 -31 34 -42q16 -11 61 -23q26 -6 61 5t68 35q33 23 55.5 51t50.5 75q11 18 31 23t38 -6t23 -31t-6 -38q-33 -54 -61 -89q-29 -35 -73 -67
q-46 -32 -102 -50.5t-111 -3.5q-61 15 -91 36q-37 25 -66 77q-26 48 -27 128t15 146q16 77 45.5 143.5t67.5 100.5q60 51 116.5 72t130.5 7q1 0 5.5 -0.5t8.5 -1.5l11 -3q6 -1 12 -3t12.5 -5t12.5 -7.5t12 -9.5q13 -13 26.5 -32t26 -39.5t15.5 -24.5q12 -17 8.5 -37.5
t-20.5 -32.5t-37.5 -8.5t-32.5 20.5z" />
    <glyph glyph-name="D" unicode="D" horiz-adv-x="590" 
d="M231 600q-11 -240 -44 -522q114 -13 210 45q53 32 78 77t23.5 94t-24.5 101q-34 77 -101 134t-142 71zM50 677q8 1 25 5.5t27 7.5l30 6q20 5 32 5.5t33 2t33 -1.5q107 -14 198.5 -89t136.5 -177q31 -71 33.5 -141.5t-34.5 -140.5t-115 -117q-70 -42 -143 -55.5t-151 0.5
q-18 2 -30 16.5t-12 33.5q-14 7 -21.5 20.5t-5.5 29.5q33 277 45 512l-57 -15q-20 -4 -38 6.5t-22.5 30.5t6 38t30.5 23z" />
    <glyph glyph-name="E" unicode="E" horiz-adv-x="547" 
d="M178 699q233 27 325 29q21 0 36 -14t15 -35t-14 -36t-35 -15q-93 -2 -291 -26l-31 -183q105 12 200 28q20 4 37 -8t20.5 -32.5t-8.5 -37.5t-33 -20q-106 -18 -233 -32q-12 -80 -20 -149q-1 -2 -2 -12.5t-2.5 -23t-3.5 -22.5v-2h13q46 -3 126 -4h92q38 0 77 0.5t45 0.5
q21 0 35.5 -14.5t14.5 -35.5t-14.5 -35.5t-35.5 -14.5q-6 0 -45.5 -0.5t-77.5 -0.5h-92q-83 1 -131 4q-30 2 -48 4q-12 2 -20 5q-21 6 -32 21q-7 9 -9 21q-1 3 -1 7v4v4q0 5 1 14q1 7 3 33q1 12 3 23q1 13 2.5 23.5t1.5 12.5q10 78 24 170q0 4 -1 7q-1 17 7 31l38 223
q-12 12 -14 28q-2 21 11 37t33 19l9 1q12 4 25 3z" />
    <glyph glyph-name="F" unicode="F" horiz-adv-x="573" 
d="M111 678q31 2 96 11q75 10 105 12q42 2 218 2q21 0 35.5 -14.5t14.5 -35.5t-14.5 -35.5t-35.5 -14.5q-174 0 -214 -2q-32 -2 -95 -11l-24 -3q-5 -41 -16 -111q-9 -60 -12 -78q66 12 237 24q21 1 36.5 -12.5t17 -34t-12 -36t-33.5 -17.5q-8 0 -37.5 -2t-40 -3t-35.5 -3
t-38.5 -3.5t-34 -4.5t-37.5 -6l-33 -6q-4 -39 -14 -255q-1 -21 -16.5 -35t-36 -13t-34.5 16.5t-13 35.5q9 205 14 254q-7 8 -10 17q-10 32 16 53q4 40 18 125q10 63 13 90q-29 11 -31 43q-1 21 12.5 36.5t34.5 16.5z" />
    <glyph glyph-name="G" unicode="G" horiz-adv-x="623" 
d="M554 287h2h-2zM516 536q-24 42 -40 59t-47 28q-76 25 -142 -9.5t-109 -115.5q-43 -79 -48 -170t31 -155q31 -56 87 -74q57 -18 117 4.5t102 78.5q21 29 46 80q7 16 11 28q-25 1 -67 2q-52 1 -76 2h-49q-21 1 -35.5 16t-13.5 35.5t16 35t35 13.5q4 0 49 -0.5t77 -1.5
q48 -1 76 -3q18 -1 30 -2q7 -1 13 -3q12 -3 21 -9q40 -26 28 -87q-6 -28 -25 -68q-28 -60 -56 -98q-42 -55 -105 -90q-63 -34 -130 -40.5t-132.5 26.5t-106.5 105q-33 60 -41 136t8 149q15 73 50 138q27 50 64 89q36 39 84 66t103.5 31.5t119.5 -15.5q55 -18 84 -48.5
t59 -84.5q10 -18 4.5 -38t-24 -30t-38.5 -4.5t-30 24.5z" />
    <glyph glyph-name="H" unicode="H" horiz-adv-x="539" 
d="M546 658q2 -94 -9 -200t-29 -230q-16 -111 -24 -190q-2 -20 -18 -33.5t-36.5 -11.5t-34 18t-11.5 37q6 61 36 272q-36 -2 -120 -10q-90 -9 -128 -11q-6 -56 -19 -158t-18 -145q-3 -20 -19 -33t-36.5 -10.5t-33.5 18.5t-11 37q6 43 19 152l21 166q-5 9 -5 20q0 17 10 31
q15 150 13 268q0 21 14.5 36t35 15t35.5 -14.5t15 -34.5q2 -111 -10 -247q36 2 107 9q106 10 143 12q15 132 13 235q0 21 14 36t35 15t36 -14t15 -35z" />
    <glyph glyph-name="I" unicode="I" horiz-adv-x="276" 
d="M280 625q-84 -241 -114 -594q-2 -21 -18 -34.5t-36.5 -11.5t-34 18t-11.5 36q31 372 120 620q7 19 25.5 28t38 2t28.5 -25.5t2 -38.5z" />
    <glyph glyph-name="J" unicode="J" horiz-adv-x="387" 
d="M392 643q-16 -55 -23.5 -115.5t-7.5 -116.5v-125q0 -4 0.5 -31t0.5 -43q0 -60 -9 -89q-22 -72 -87 -113q-65 -42 -133 -37q-82 5 -118 71q-37 67 -4 171q7 20 25.5 29.5t38 3t29 -25t3.5 -37.5q-21 -63 -5 -93q10 -18 38 -19q35 -3 70.5 20t46.5 58q5 16 5 61
q0 17 -0.5 43.5t-0.5 30.5v126q0 59 8.5 128t26.5 131q6 20 24 30t38 4t30 -24t4 -38z" />
    <glyph glyph-name="K" unicode="K" horiz-adv-x="565" 
d="M253 325l-37 -41q-7 -9 -17 -13q-14 -167 -30 -243q-4 -21 -21.5 -32t-38 -7t-31.5 21.5t-7 37.5q10 45 15.5 92t10.5 115q5 66 8 98q7 68 19 178q14 116 19 164q2 21 19 34q16 13 36.5 11t33.5 -18.5t11 -36.5q-5 -48 -15.5 -136.5t-13.5 -116.5q133 148 206 244
q13 17 33.5 19.5t37 -10t19 -33t-9.5 -36.5q-65 -86 -177 -213q24 -41 57.5 -91t53.5 -78l68 -92l60 -81q13 -17 9.5 -37.5t-20 -33t-37 -9t-32.5 19.5l-56 75l-63 86l-53 76z" />
    <glyph glyph-name="L" unicode="L" horiz-adv-x="488" 
d="M67 69q0 3 1 6q10 55 19 110t18.5 125t13.5 104l15 126q11 90 13 110q3 21 19 33.5t37 10t33.5 -18.5t10.5 -37l-13 -106l-15 -122l-13 -100q-9 -69 -18 -122l-17 -105q96 4 274 4q21 0 35.5 -14.5t14.5 -35.5t-14.5 -35.5t-35.5 -14.5q-227 0 -345 -8q-20 -1 -35.5 12.5
t-17.5 34.5q-2 27 20 43z" />
    <glyph glyph-name="M" unicode="M" horiz-adv-x="714" 
d="M22 73q4 10 20 43l20 43l20 40q13 29 19 43l17 40q12 25 19 42l16 41l17 44q7 21 13 42q11 33 36 123l15 54l4 17l1 5l1 1v1v1q1 1 1 3q1 3 2 4q2 4 5 8q17 23 46 20q18 -2 31 -13.5t18 -27.5q5 -15 3 -34l-3 -18v-3q1 -7 3 -24l3 -27q5 -57 32 -186q7 -32 13 -56
q10 20 35 84q25 62 44 97q34 62 42 73q4 7 8 11t9 7l16 30q2 4 3 7l3 12l6 20q16 54 59 68q25 7 46 -4q21 -12 27 -37q4 -16 0 -40q-2 -10 -4 -18.5t-3 -12t-1 -6.5v-134q0 -236 36 -390q4 -20 -6.5 -37.5t-31 -22t-38 6t-22.5 31.5q-38 164 -38 412v18l-23 -42
q-16 -30 -39 -86q-29 -73 -41 -96q-3 -7 -7 -20q-3 -13 -8 -29q-22 -67 -78 -68q-25 -1 -44 19q-8 9 -14 21q-9 17 -18 45q-13 43 -29 117l-12 63q-8 -24 -17 -50l-18 -45l-20 -48l-19 -44l-21 -47l-20 -44l-23 -46l-21 -43q-9 -19 -28.5 -26t-38 2t-25.5 28.5t2 37.5z" />
    <glyph glyph-name="N" unicode="N" horiz-adv-x="636" 
d="M26 64q13 51 32 113l32 104l39 116l36 106q1 4 24 87q9 32 15 49q3 12 6 19q2 5 4 9t5 8q8 11 21 17q27 12 53 3q22 -7 38 -28q17 -22 25 -63q5 -24 7 -56q1 -9 1 -20q0 -2 1 -4v-2q10 -96 45 -242q7 -31 14 -59q3 20 15 71q22 89 106 375q6 20 24 30t38 4t30 -24t4 -38
q-83 -283 -104 -371q-13 -51 -14 -66q-3 -31 -12 -79q-1 -5 -1 -20t-1 -29q-2 -26 -10 -42q-12 -24 -38 -30q-24 -5 -46 10q-21 14 -38 45q-12 22 -24 56q-20 57 -41 144q-31 132 -45 240q-5 -19 -8 -26l-35 -105l-38 -113l-32 -103q-18 -60 -32 -112q-5 -20 -23 -30.5
t-38 -5t-30.5 23.5t-4.5 38z" />
    <glyph glyph-name="O" unicode="O" horiz-adv-x="587" 
d="M482 684q16 3 31.5 -4.5t22.5 -23.5q35 -75 50 -161t1.5 -181t-63.5 -165q-38 -53 -99.5 -90.5t-127.5 -47.5q-75 -11 -139.5 19t-99.5 105q-32 75 -30 178t35 197q18 49 43 90.5t60.5 76t83.5 52t103 12.5q78 -8 129 -57zM454 555q-29 47 -50.5 65t-60.5 21
q-60 6 -108 -37.5t-77 -126.5q-29 -80 -30.5 -166t22.5 -134q36 -81 132 -67q46 7 90 34q44 26 70 63q44 62 51 155q7 92 -19 175q-12 6 -20 18z" />
    <glyph glyph-name="P" unicode="P" horiz-adv-x="552" 
d="M204 317q72 19 126 41q109 46 126 99q15 47 -36 100q-64 64 -178 61q-4 -43 -15.5 -121t-14.5 -108q-4 -33 -8 -72zM48 693q8 2 23 4l57 11q20 3 58.5 7t64 3.5t62 -4.5t64 -14.5t58 -28.5t55.5 -44q40 -39 60 -91.5t2 -108.5q-31 -97 -184 -161q-73 -30 -175 -54
l-18 -187q-3 -20 -19 -33t-36.5 -10.5t-33.5 18.5t-11 37q5 46 20 198q-1 3 -2 7q-4 19 6 36q7 70 13 123q4 32 14.5 101t14.5 106q-21 -4 -75 -13q-21 -4 -38 8t-20.5 32.5t8.5 37.5t32 20z" />
    <glyph glyph-name="Q" unicode="Q" horiz-adv-x="623" 
d="M494 239q12 37 21 80q24 115 13 186q-4 26 -31 84q-27 31 -51 43t-58 10q-66 -4 -116 -51q-50 -46 -79 -126q-28 -78 -26 -157q2 -81 32 -138q36 -67 108.5 -77.5t127.5 42.5q-38 71 -59 118q-9 19 -2 38.5t26 28t38.5 1.5t27.5 -26zM484 45q-59 -45 -131 -53t-138 26
t-104 106q-41 77 -43 181q-3 103 30 194q37 100 108 169q73 68 176 74q99 5 171 -67q19 -8 27 -26q2 -4 9 -20l11 -25q4 -10 10 -25.5t10 -30t6 -27.5q15 -90 -13 -223q-22 -104 -59 -171l48 -93q9 -19 2.5 -38.5t-25.5 -28.5t-38.5 -2.5t-28.5 25.5z" />
    <glyph glyph-name="R" unicode="R" horiz-adv-x="590" 
d="M274 613l-54 -207q86 3 134 21q43 16 73.5 41.5t39.5 49.5q7 19 -2 35q-14 27 -62 50q-59 28 -129 10zM347 321q-49 -13 -138 -16q-6 0 -12 1q-5 -23 -9 -44q-5 -27 -17 -110q-11 -77 -20 -115q-5 -21 -22.5 -31.5t-38 -6t-31 22t-6.5 37.5q9 36 19 107q12 85 18 114
q17 89 64 271l-15 -13q-16 -13 -36.5 -12t-34 17t-12.5 36.5t17 34.5q64 55 136 83q6 3 12 5q121 42 226 -9q77 -37 106 -92q31 -56 8 -118q-28 -75 -120 -126q19 -73 53 -133.5t93 -141.5q13 -17 9.5 -37.5t-20 -33t-37 -9t-32.5 19.5q-62 84 -99.5 150.5t-60.5 148.5z" />
    <glyph glyph-name="S" unicode="S" horiz-adv-x="578" 
d="M475 498l-12 25q-7 15 -9 19t-7.5 11.5t-11 12t-14.5 10.5q-37 24 -87 25q-44 1 -57 -22q-7 -13 20 -40q10 -10 25.5 -23t25.5 -20l36 -26l35 -25q97 -71 133 -123q63 -93 11 -186q-32 -57 -96.5 -89.5t-138.5 -40t-144 11.5q-70 20 -111 69q-17 20 -27 40
q-11 20 -16 42.5t-6.5 36t-1.5 38.5t-1 33q-1 21 12.5 36.5t34.5 16.5t36.5 -12.5t16.5 -34.5q1 -16 1.5 -38.5t1 -30.5t3 -21t8 -22t14.5 -20q22 -25 67.5 -37.5t101.5 -7t98.5 27t58.5 50.5q22 40 -6 81q-26 38 -109 99q-4 2 -33 23l-39 29l-30 24q-20 16 -32 29
q-80 80 -37 158q42 77 147 74q78 -2 139 -41q17 -11 30 -22.5t22.5 -25.5t14 -21.5t13 -25.5t10.5 -23q9 -19 2.5 -38.5t-25.5 -28.5t-38.5 -2.5t-28.5 25.5z" />
    <glyph glyph-name="T" unicode="T" horiz-adv-x="559" 
d="M56 713q72 -5 229 -6q153 -1 235 -7q21 -2 34.5 -17.5t11.5 -36.5t-17.5 -34.5t-36.5 -11.5q-63 5 -147 7q-5 -34 -20 -122t-20 -137q-4 -29 -9 -84l-7 -66q-9 -89 -22 -154q-4 -20 -21.5 -31.5t-37.5 -7.5t-31.5 21.5t-7.5 37.5q12 57 21 145l6 66l9 85q6 48 21 135
l18 112q-140 1 -214 6q-21 2 -34.5 17.5t-12 36t17 34t35.5 12.5z" />
    <glyph glyph-name="U" unicode="U" horiz-adv-x="596" 
d="M214 643q-24 -160 -31 -239q-3 -28 -5 -84q-1 -58 -4 -90q-6 -64 4.5 -103t24.5 -48q9 -5 26 3q36 17 79 73q91 118 147 309q9 32 26 109l10 51l4 16l1 5v3q1 1 1 2q1 3 2 5q1 3 3 7q3 5 7 9q11 12 28 14q29 5 49 -18q8 -9 12 -23q4 -12 5 -30q1 -25 -1 -66
q-6 -79 -14 -118q-13 -61 -16 -75l-10 -61q-9 -46 -9.5 -65t-1 -55.5t5 -66.5t15.5 -64q6 -20 -4 -38t-30 -24t-38 4t-24 30q-25 89 -25 175q-28 -50 -63 -95q-59 -76 -116 -103q-67 -32 -123 3q-47 30 -64.5 96.5t-10.5 148.5q3 27 4 84q2 59 5 90q8 81 33 243
q3 21 19.5 33.5t37 9t33 -20t8.5 -36.5z" />
    <glyph glyph-name="V" unicode="V" horiz-adv-x="577" 
d="M161 673q11 -48 56 -211q39 -142 52 -220q2 -11 6 -49l214 453q9 18 28.5 25t38 -2t25.5 -28.5t-2 -38.5l-224 -474l-3 -6l-4 -8q-2 -6 -4 -10q-10 -22 -19 -38q-13 -26 -26 -41q-25 -31 -56 -33q-23 -2 -39 15q-6 5 -9 12q-3 5 -4 10l-2 6q0 3 -1 8q-1 7 -2 20
q-2 20 -5 59q-8 89 -10 104q-14 80 -50 209q-46 165 -58 216q-4 20 7 37.5t31 22t37.5 -6.5t22.5 -31z" />
    <glyph glyph-name="W" unicode="W" horiz-adv-x="837" 
d="M190 655q1 -29 4 -60t8 -69q5 -39 7 -60q5 -52 9 -148q4 -95 7 -128l1 -22q20 36 45 91q53 116 103 248q5 13 31 87q7 20 10.5 28.5t6.5 14.5q5 7 12 13q21 17 46 10q11 -3 19 -9.5t11 -11.5l2 -5q2 -5 4 -9q1 -4 1 -9q1 -5 2 -14q2 -14 4 -38q3 -50 5 -94
q5 -155 15 -252q8 -89 19 -140q2 -9 4 -16l2 3l15 51q6 22 14 54l10 40l15 52l5 19l1 3q1 4 1.5 4.5t6.5 20.5l17 52q41 125 97 231q9 19 29 25t38.5 -3.5t24.5 -29.5t-4 -38q-51 -96 -89 -215q-22 -68 -25 -75v-1q-1 -4 -21 -73q-2 -6 -10 -38.5t-14 -53.5q-9 -35 -17 -58
q-13 -35 -27 -50q-17 -19 -35 -29q-37 -22 -71 -7q-29 12 -46 50q-10 23 -18 60q-13 57 -22 152q-7 75 -12 171q-34 -86 -69 -162q-43 -94 -74 -143q-20 -33 -38 -52q-33 -34 -68 -28q-23 3 -36 22q-3 5 -5 11q-1 4 -2 9t-2 14q-2 12 -4 35q-4 37 -8 97q-2 34 -7 128
q-4 94 -9 146q-2 22 -7 61q-5 40 -8 72.5t-4 61.5q-1 21 13 36t35 16t36 -13t16 -35z" />
    <glyph glyph-name="X" unicode="X" horiz-adv-x="527" 
d="M243 340q-113 179 -182 261q-14 15 -12 36t17.5 34.5t36.5 11.5t34 -18q71 -83 164 -230q73 124 112 229q7 20 26 28.5t38.5 1.5t28 -26t1.5 -38q-47 -127 -146 -289l53 -81l62 -94l51 -83q11 -18 5.5 -38t-23.5 -30.5t-38 -5t-30 23.5q-27 45 -138 215
q-119 -185 -149 -237q-10 -18 -30 -23.5t-38 5t-23.5 30.5t5.5 38l53 89l68 107z" />
    <glyph glyph-name="Y" unicode="Y" horiz-adv-x="534" 
d="M539 642q-8 -27 -33 -116l-36 -130l-36 -114q-22 -71 -44 -129.5t-46 -114.5q-9 -19 -28 -26.5t-38 1t-26.5 27.5t0.5 38q40 92 78 206q-19 5 -29 21q-41 61 -113 150l-120 152q-12 16 -9.5 36.5t19 33t37 10t33.5 -19.5l118 -149q64 -81 97 -128l80 280q6 20 24 30t38 4
t30 -24t4 -38z" />
    <glyph glyph-name="Z" unicode="Z" horiz-adv-x="578" 
d="M84 660q26 4 90.5 16t99.5 17q8 2 22 5q22 5 29 7q46 9 79 -3q45 -15 56 -56q8 -28 -5 -62q-4 -12 -12 -26.5t-14 -22.5l-6 -9q-25 -41 -108 -162q-66 -97 -97 -157l-32 -64q-1 -3 -1 -5q-1 -5 -3 -10l15 3q145 29 337 31q21 0 36 -14.5t15 -35t-14.5 -35.5t-34.5 -15
q-185 -2 -319 -29q-29 -6 -64 -14q-1 0 -1.5 -0.5t-1.5 -0.5l-5 -3q-4 -2 -11 -6q-50 -23 -82 12q-24 25 -14 59q4 14 16 28q11 14 13 14v1l6 11q0 1 1 2q0 5 3 10l3 9l48 96q34 68 104 170q86 125 105 157q3 5 10 15t10 16q-5 -1 -12 -2q-5 -1 -25 -6q-19 -5 -32 -6
l-98 -17q-64 -12 -90 -16q-20 -4 -37 8.5t-20.5 32.5t9 37t32.5 20z" />
    <glyph glyph-name="bracketleft" unicode="[" horiz-adv-x="264" 
d="M220 618q-3 0 -16 0.5t-34 2t-37 1.5q-18 1 -30 1q-1 -24 -1 -61q0 -82 1 -121q0 -12 0.5 -54t1.5 -114.5t1 -121.5q2 -112 3 -174q1 -37 2 -57v-9q7 -5 26 -6q14 -1 39 1q37 3 45 3q21 0 35.5 -14.5t14.5 -35.5t-14.5 -35.5t-35.5 -14.5q-6 0 -37 -2q-32 -3 -52 -2
q-84 4 -114 66l-5 17q-1 4 -1 8q-1 8 -1 20q-1 21 -2 59q-1 62 -3 175q0 50 -1 121.5t-1.5 113.5t-0.5 54q-1 40 -1 123q0 48 1 77q1 17 2 28q1 7 2 12t2 9q5 13 15 22q9 9 21 12q4 1 8 1.5t10 0.5h20q20 0 54 -2q22 -1 37 -2q20 -1 32.5 -1.5t15.5 -0.5q21 0 35 -15t14 -36
t-15 -35t-36 -14z" />
    <glyph glyph-name="backslash" unicode="\" horiz-adv-x="315" 
d="M2 717q15 -19 27 -37.5t25 -42.5l18 -36q6 -12 19.5 -43t16.5 -37l94 -209l115 -251q9 -19 2 -38.5t-25.5 -28.5t-38 -2t-28.5 25l-115 253l-94 209l-18 39q-13 30 -18 40l-16 31q-11 21 -21 36l-21 30q-13 17 -10.5 37.5t19 33t37 10t32.5 -18.5z" />
    <glyph glyph-name="bracketright" unicode="]" horiz-adv-x="181" 
d="M-27 713q8 -1 37 1q33 1 53 -1q87 -6 113 -72q8 -18 9 -53q2 -22 1 -57q0 -15 -0.5 -37.5t-0.5 -32.5v-24q8 -175 -3 -443v-59v-41v-14v-4v-1v-1v-1v-1v-1v-1q0 -6 -4 -14q-29 -71 -116 -77q-21 -1 -55 1q-34 3 -41 3q-21 0 -35.5 14.5t-14.5 35.5t14.5 35.5t35.5 14.5
q7 0 48 -3q27 -2 41 -1q18 1 27 11v4v41v63q10 264 3 435v25q0 10 0.5 34.5t0.5 39.5q1 32 0 51l-2 20q-4 9 -29 11q-14 1 -41 0q-34 -2 -47 -1q-21 1 -34.5 16.5t-12.5 36.5t16.5 34.5t36.5 12.5z" />
    <glyph glyph-name="asciicircum" unicode="^" horiz-adv-x="451" 
d="M15 327q31 60 95 213l41 99l13 30l4 10l2 4l2 4q2 3 5 6q3 4 8 8q13 10 30 10q31 0 58 -32q14 -16 30 -45q24 -42 59 -121l55 -128q29 -67 35 -77q10 -19 4.5 -38.5t-24 -30t-38 -5t-30.5 23.5q-8 15 -39 88l-54 126q-25 56 -43 91l-26 -61q-71 -167 -99 -221
q-9 -18 -29 -24.5t-38 3t-24.5 29.5t3.5 38z" />
    <glyph glyph-name="underscore" unicode="_" horiz-adv-x="528" 
d="M-16 -50q176 -2 497 21q21 1 36.5 -12.5t17 -34t-12 -36t-33.5 -17.5q-326 -23 -507 -21q-20 0 -34.5 15t-14.5 35.5t15 35t36 14.5z" />
    <glyph glyph-name="grave" unicode="`" horiz-adv-x="247" 
d="M81 758q20 -37 73 -92q67 -71 91 -107q12 -17 8 -37.5t-21 -32t-37.5 -7.5t-31.5 21q-20 29 -81 94q-62 64 -89 113q-10 18 -4 38t24 30t38 4t30 -24z" />
    <glyph glyph-name="a" unicode="a" 
d="M126 106q9 -16 14 -16q16 3 45 35q29 31 55.5 75t38.5 71q17 37 32 102q1 0 0.5 2t-0.5 6.5t1 15.5q0 14 3 24q-7 15 -17 22q-12 8 -32 2q-29 -8 -59.5 -36.5t-47.5 -64.5q-28 -60 -34 -152q-2 -19 -1 -51q0 -18 1 -29q1 -4 1 -6zM302 112q-22 -31 -43 -55
q-53 -57 -103 -65q-39 -6 -69.5 13t-50.5 58q-8 14 -10 39q-2 16 -2 37q-1 37 1 61q8 109 44 186q26 54 71 98q46 43 98 58q67 19 118 -17q52 -37 69 -122q4 -19 -6 -36l-1 -9l-12 -74q-15 -97 -11 -129q6 -48 53 -90q15 -14 16 -35t-13 -36t-35 -16t-36 13q-60 56 -78 121z
" />
    <glyph glyph-name="b" unicode="b" horiz-adv-x="476" 
d="M126 96l-1 -3q38 -6 70 -4.5t59 14.5q72 35 107 97.5t16 131.5q-5 16 -19 37.5t-24 28.5q-34 20 -56 12q-24 -9 -47 -45q-8 -11 -14.5 -23t-12.5 -28l-12 -26q-4 -10 -10.5 -28.5t-8.5 -25.5t-9 -28t-7 -23q-2 -5 -12.5 -33t-16.5 -46zM28 118q7 51 14 152q10 142 47 433
q3 21 19.5 33.5t37 10t33 -19t10.5 -36.5q-23 -177 -32 -256q38 51 86 69q69 25 143 -22q29 -18 54 -55t33 -69q30 -109 -23 -203.5t-154 -141.5q-33 -16 -72.5 -21t-62 -3.5t-63.5 6.5q-2 1 -4 1q-15 -8 -31 -6q-20 3 -33 18q-4 6 -8 13q-11 23 -3 62q3 15 9 35z" />
    <glyph glyph-name="c" unicode="c" horiz-adv-x="405" 
d="M317 384q-18 37 -38 49q-12 7 -27 3q-21 -6 -45.5 -30t-46.5 -62q-47 -82 -43 -159q3 -69 57 -88q20 -7 35.5 -5.5t41.5 12.5q32 14 37 19q3 2 5 5l9 13l15 23q13 17 33.5 20.5t37 -9t20 -33t-8.5 -36.5q-4 -5 -12.5 -18t-15.5 -21.5t-13 -14.5q-19 -19 -69 -40
q-26 -11 -47 -16q-20 -5 -47 -4t-55 11q-60 21 -90 69t-33 109q-5 104 56 212q29 51 68 88.5t83 50.5q56 16 105 -13q47 -27 78 -93q9 -19 2 -38t-26 -28t-38 -2t-28 26z" />
    <glyph glyph-name="d" unicode="d" horiz-adv-x="471" 
d="M305 370q-1 1 -19 26q-6 9 -9 11q-40 30 -85 -9q-26 -22 -47 -60t-31 -81q-21 -90 14 -137q40 -52 154 -27q6 1 11 1q-5 115 24 265q-7 4 -12 11zM477 621q-8 -39 -19 -88l-20 -87l-18 -82q-9 -44 -15 -83t-10 -80t-3 -83.5t7 -83.5q2 -21 -10.5 -37.5t-32.5 -19.5
q-29 -4 -47 20q-3 -1 -5 -2q-176 -38 -255 65q-34 45 -41 106q-7 63 8 114q13 57 42 108.5t68 85.5q30 25 63 37.5t72.5 7.5t75.5 -32q3 -3 7 -5q27 116 35 159q4 20 21 31.5t37.5 7.5t32 -21t7.5 -38z" />
    <glyph glyph-name="e" unicode="e" horiz-adv-x="396" 
d="M298 401q-19 9 -61 11q-23 1 -52 -22t-53 -67l-4 -7q25 -1 43 2q27 3 66 27t57 50q3 3 4 6zM101 216q-1 -27 6 -43q24 -52 92 -66q49 -10 150 -2q21 1 36.5 -12t17 -34t-11.5 -36.5t-34 -17.5q-115 -9 -178 4q-117 25 -162 122q-16 34 -16 78t11 84q12 39 32 77
q33 62 84 104q52 41 115 38q105 -6 141 -54q40 -54 -9 -122q-30 -41 -86 -76t-104 -42q-28 -3 -84 -2z" />
    <glyph glyph-name="f" unicode="f" horiz-adv-x="333" 
d="M251 562q-6 7 -13 17l-8 11q-3 3 -4 5q-2 0 -3 1q-4 -3 -9 -11q-14 -25 -21 -70l-4 -37l98 7q21 1 36.5 -12.5t16.5 -34.5t-12.5 -36.5t-34.5 -16.5q-28 -1 -110 -8q-3 -82 -4 -98q-9 -147 -57 -256q-9 -19 -28 -26.5t-38 1t-26.5 27.5t0.5 38q42 93 49 221l4 87
q-19 -1 -35 -1q-21 0 -36 14.5t-15 35t14.5 35.5t34.5 15t42 1q3 29 7 58q9 64 32 105q21 37 52 52q41 20 88 0q23 -10 42 -35l10 -14q4 -5 6 -7q14 -15 13 -35.5t-16 -35t-35.5 -13.5t-35.5 16z" />
    <glyph glyph-name="g" unicode="g" horiz-adv-x="412" 
d="M299 342l-2 10q-4 24 -9 40l-5 13q-18 20 -42 8q-37 -18 -76 -77q-40 -60 -56 -124q-15 -55 -4 -74q8 -14 18 -14q17 0 46 17q28 18 55.5 45.5t39.5 46.5q3 5 7 21q2 7 5 21.5t5 21.5q7 28 18 45zM318 139q-46 -52 -97 -83q-53 -33 -100 -32q-66 2 -102 64q-32 54 -7 149
q21 80 69 154q55 82 117 112q38 20 81.5 13.5t77.5 -43.5q16 -18 26 -51q6 -20 13 -53l1 -5q10 -8 15 -20q2 -5 4 -11q1 -5 1 -11q1 -8 2 -22q1 -23 1 -59q0 -77 -3 -116q-17 -223 -187 -307q-23 -11 -58 -22q-46 -16 -71 -15q-15 0 -33 3t-37 7l-24 5q-20 3 -32.5 19.5
t-9 37t20 33t37.5 8.5q14 -2 30.5 -5.5t27.5 -5.5t22 -2q8 0 38 10q30 9 45 17q64 31 94.5 86t36.5 139q0 3 1 6z" />
    <glyph glyph-name="h" unicode="h" horiz-adv-x="396" 
d="M111 33q-4 -12 -15 -21t-26 -10q-20 -2 -36 10q-13 11 -17 27q-2 6 -2 12v7q1 2 1 6l4 23q31 217 71 579q3 20 19 33t36.5 10.5t33.5 -18.5t11 -37l-30 -256q35 45 66 68q68 49 125 7q21 -16 29 -49q5 -18 5 -45q1 -36 -5 -104q-9 -99 -9 -103q-3 -44 1 -55q1 -4 3 -7
t7.5 -10t12.5 -19q11 -18 5.5 -38t-23 -31t-37.5 -5.5t-31 22.5q0 1 -3 5t-7 10t-8 13t-8 15t-7 15q-9 29 -5 91q1 19 9 106q6 66 5 92v9q-25 -18 -57 -64q-27 -39 -51 -84.5t-32 -67.5q-12 -30 -26 -100l-4 -19q-2 -10 -3 -13v-1z" />
    <glyph glyph-name="i" unicode="i" horiz-adv-x="174" 
d="M172 458q-11 -77 -28 -219l-23 -192q-3 -21 -19.5 -33.5t-37 -10t-33 19t-10.5 36.5q7 51 24 193.5t27 219.5q3 20 19.5 32.5t37 10t33 -19t10.5 -37.5zM181 626q0 -21 -14.5 -35.5t-35.5 -14.5t-35.5 14.5t-14.5 35.5t14.5 35.5t35.5 14.5t35.5 -14.5t14.5 -35.5z" />
    <glyph glyph-name="j" unicode="j" horiz-adv-x="215" 
d="M211 483q0 -285 -20 -441q-7 -48 -18 -98q-9 -41 -19 -66q-8 -18 -16 -30q-21 -27 -51 -27q-34 0 -68 26q-9 7 -14 11q-6 5 -9 8t-7 5q-18 10 -23.5 30.5t5 38t31 23t37.5 -5.5q11 -6 29 -21q4 13 7 30q11 46 16 90q20 149 20 427q0 21 14.5 35.5t35.5 14.5t35.5 -14.5
t14.5 -35.5zM222 629q0 -21 -14.5 -35.5t-35.5 -14.5t-35.5 14.5t-14.5 35.5t14.5 35.5t35.5 14.5t35.5 -14.5t14.5 -35.5z" />
    <glyph glyph-name="k" unicode="k" horiz-adv-x="455" 
d="M202 257l-34 -23q-2 -1 -4 -3q-12 -120 -18 -192q-2 -21 -17.5 -34t-36.5 -11.5t-34 17t-12 36.5q4 46 25.5 264t25.5 336q1 21 16 35t36 13t35 -16t13 -36q-4 -113 -20 -282q51 36 85.5 64t80.5 76q14 15 35 15t36 -14t15 -35t-14 -36q-66 -68 -131 -116
q59 -107 166 -231q13 -16 11.5 -36.5t-17 -34t-36 -12t-34.5 16.5q-110 128 -172 239z" />
    <glyph glyph-name="l" unicode="l" horiz-adv-x="209" 
d="M215 627q-18 -115 -47 -329.5t-36 -260.5q-2 -21 -19 -33t-37.5 -9.5t-32.5 19.5t-9 37l35 261q29 216 48 331q3 20 19.5 32.5t37 9t33 -20t8.5 -37.5z" />
    <glyph glyph-name="m" unicode="m" horiz-adv-x="702" 
d="M391 137q2 -9 1 -20q-1 -21 -11 -64q-2 -6 -2.5 -8t-1.5 -4q-1 -4 -3 -7q-9 -15 -26 -21q-25 -10 -47 6q-11 9 -17 22q-2 7 -3 15v6v6q3 16 3 18q5 41 6 88q0 2 1.5 43t1.5 57t-2 65q-3 49 -13 78q-3 10 -6.5 16t-5.5 7l-1 1q-13 6 -34 -12q-30 -26 -63 -88
q-30 -56 -53 -125l-3 -39q-4 -39 -18 -101q-4 -14 -7 -22q-2 -6 -5 -11q-6 -8 -14 -13q-22 -15 -47 -5q-18 7 -26 24q-3 6 -5 12q-1 5 -1 11q0 16 7 81q4 31 21 84q3 25 14 80l34 170q4 20 21 31.5t38 7.5q24 -5 35 -27l7 6q69 59 139 28q46 -21 68 -84q10 -32 15 -77
q19 30 37 55q48 65 96 93q73 42 136 0q44 -28 51 -111q5 -54 -4 -133q-10 -101 -37 -224q-5 -20 -22.5 -31t-37.5 -6.5t-31 22t-7 37.5q26 117 36 212q7 71 3 114q0 8 -1.5 15t-2.5 10.5t-1.5 6.5t-0.5 4l-1 1q-12 7 -30 -4q-30 -17 -65 -65q-31 -43 -58 -92
q-26 -51 -37 -82q-16 -43 -20 -57z" />
    <glyph glyph-name="n" unicode="n" horiz-adv-x="435" 
d="M315 425q-54 -5 -108 -102q-43 -77 -72 -187l-7 -40q-6 -32 -15 -53l-4 -8q-2 -5 -6 -8q-9 -11 -23 -16q-30 -9 -51 14q-9 9 -12 21q-2 7 -2 14.5t2 21.5q1 12 6 38q4 25 13 70q10 46 13 63q8 46 21 128q12 83 16 106q3 20 20 32.5t37 9t32.5 -20.5t8.5 -37l-1 -11
q60 62 132 65q75 3 106 -91q18 -53 21 -146q3 -78 -8 -236q-2 -21 -17.5 -34.5t-36 -12t-34 17t-12.5 35.5q11 154 8 226q-3 79 -16 119q-6 16 -11 22z" />
    <glyph glyph-name="o" unicode="o" horiz-adv-x="446" 
d="M349 333q-18 57 -45 72q-20 12 -53 -5q-41 -22 -79 -73.5t-53 -107.5q-17 -68 -13 -88q3 -16 13 -23.5t30 -9.5q46 -3 94 23q50 27 77 81.5t28 121.5q0 5 1 9zM447 303q-5 -84 -43.5 -156.5t-112.5 -113t-150 -34.5q-48 3 -85 30.5t-48 81.5q-9 43 15 134q19 73 69.5 142
t112.5 101q80 42 148 5q69 -39 98 -155q5 -18 -4 -35z" />
    <glyph glyph-name="p" unicode="p" horiz-adv-x="456" 
d="M56 411q3 3 16.5 17.5t27 27t25.5 21.5q62 43 130.5 46t120.5 -32q55 -37 76 -101q22 -65 1 -141q-10 -37 -29 -69q-18 -32 -46.5 -59.5t-47.5 -42.5l-53 -40q-7 -4 -10 -7q-16 -12 -36.5 -8.5t-33 20t-9 37t20.5 33.5q35 25 52.5 39t40.5 35t35.5 42t19.5 46
q11 53 0.5 84t-36.5 48q-38 25 -87 12l-94 -660q-3 -21 -19.5 -33t-37 -9t-32.5 19q-12 17 -9 37l79 563q-15 -12 -34.5 -11t-32.5 16q-14 14 -13.5 35t15.5 35z" />
    <glyph glyph-name="q" unicode="q" 
d="M119 108q5 -2 17 3q25 10 58 46q56 61 95 136q17 34 32 76q7 21 10 25q0 2 1 3q0 3 1 21q-10 10 -19 11q-11 2 -28 -7q-45 -26 -94 -103q-48 -76 -67 -150q-8 -32 -7 -53q0 -5 1 -8zM248 70q-37 -36 -73 -51q-69 -30 -123 15q-31 26 -34 78q-1 34 11 82q23 90 78 178
q63 99 131 137q46 26 90 19q50 -7 87 -51q19 -24 18 -62q0 -8 -0.5 -14t-0.5 -7v-4q1 -12 -3 -23q1 -23 -7 -50l-7 -21q-3 -10 -4 -15q-3 -12 -33 -108q-23 -77 -33 -128q-26 -136 24 -171q7 -5 14 -7l21 -6q13 -4 28 -11q20 -7 28 -26t0.5 -38.5t-26.5 -27.5t-38 0
q-1 0 -18.5 5.5t-35 13t-29.5 15.5q-104 72 -66 271z" />
    <glyph glyph-name="r" unicode="r" horiz-adv-x="429" 
d="M184 490q19 13 39 22q100 42 196 -45q16 -14 17 -34.5t-13 -36t-34.5 -16.5t-35.5 13q-50 44 -91 26q-43 -17 -91 -91q-4 -6 -10 -10l-13 -135q-10 -95 -16 -146q-3 -20 -19 -33t-36.5 -10.5t-33.5 18.5t-11 37q6 51 16 142l18 167q8 76 19 142q3 20 19.5 32.5t37.5 8.5
q19 -3 31 -17.5t11 -33.5z" />
    <glyph glyph-name="s" unicode="s" horiz-adv-x="414" 
d="M325 360q-3 7 -6 18q-1 0 -2 5t-2 7q-3 8 -4 10q-10 12 -36.5 19.5t-57.5 3.5q-31 -5 -44 -16t-13 -24q0 -1 1 -2.5t2.5 -3.5t5 -5t7.5 -7q14 -11 72 -44q25 -14 36 -21q13 -8 36.5 -25.5t37.5 -33t27.5 -39.5t17.5 -50q10 -54 -3 -85t-40 -51.5t-54 -28t-57 -8.5
q-42 -2 -85 8t-71 30q-45 31 -61 70l-6 22q-4 12 -7 27t-4 19q-4 21 6.5 38.5t31 22t38 -6t22.5 -30.5l5 -26q3 -12 4 -17.5t3 -11.5q5 -11 24 -25q14 -9 40.5 -15.5t54.5 -4.5q54 2 64 26q1 4 -3 29q-5 26 -30 48.5t-76 51.5q-65 36 -85 53q-54 42 -54 96q0 33 13.5 59
t35.5 42t45.5 25t48.5 13q51 7 103.5 -7.5t82.5 -52.5q13 -16 21 -41l4 -14l3 -9q8 -19 0 -38.5t-27 -27t-38.5 0.5t-26.5 27z" />
    <glyph glyph-name="t" unicode="t" horiz-adv-x="348" 
d="M125 517q17 70 18 92q1 21 16 35t36 13t35 -16t13 -36q-1 -30 -16 -90h41h37q21 0 35.5 -14.5t14.5 -35.5t-14.5 -35.5t-35.5 -14.5h-51h-52q-13 -54 -22 -99q-18 -92 -13 -144q4 -52 28 -67q5 -3 21 -6q3 -1 6 -1.5t7 -1t7 -1.5q14 -2 25 -5q20 -5 30.5 -23t5 -38
t-23.5 -30.5t-38 -4.5q-5 1 -16 3l-21 3q-34 7 -57 21q-65 41 -74 142q-6 68 14 172q7 36 19 83q-39 2 -74 6q-20 3 -33 19t-10.5 36.5t18.5 33.5t37 11q40 -5 87 -7z" />
    <glyph glyph-name="u" unicode="u" horiz-adv-x="447" 
d="M171 458q-42 -110 -50 -203q-10 -116 39 -151q7 -5 18 2q24 17 53 64q26 42 47 92q20 51 28 80q1 4 7 41l13 68l4 27q1 5 2 9q1 2 1 4q2 7 7 15q9 15 27 21q22 7 41 -5q12 -7 18 -19q3 -5 4.5 -10.5t1.5 -8.5v-3v-7q0 -4 -1 -11q-2 -12 -5 -39q-4 -28 -17 -90
q-12 -59 -16 -86q-10 -77 0 -131q5 -22 13 -18q-1 0 -3 3q1 3 2 3q25 -13 28 -15q17 -12 20.5 -32.5t-8.5 -37.5t-32.5 -20.5t-37.5 8.5l-3 2l-5 2q-4 2 -10 6q-28 15 -39 38q-9 19 -15 40q-34 -49 -69 -73q-69 -46 -132 -1q-96 68 -81 242q10 105 56 230q7 19 26 27.5
t38.5 1.5t28 -26t1.5 -39z" />
    <glyph glyph-name="v" unicode="v" horiz-adv-x="429" 
d="M157 462q16 -158 44 -305q1 -3 5 -20l2 6l10 30q7 18 8 21q45 122 114 277q9 19 28 26.5t38 -1t26.5 -27.5t-0.5 -38q-68 -153 -112 -271q-1 -4 -8 -22l-10 -29q-17 -47 -31 -64q-1 -1 -10 -12q-9 -12 -16 -19q-34 -35 -74 -27q-19 4 -30 19q-3 4 -6 9q-2 4 -4 9
q-2 6 -4 16q-5 15 -11 39l-13 58q-31 157 -46 315q-2 21 11.5 37t34 18t36.5 -11.5t18 -33.5z" />
    <glyph glyph-name="w" unicode="w" horiz-adv-x="656" 
d="M139 445q15 -167 12 -289q11 18 77 141q0 1 4 9l10 20l13 24q12 23 21 37q7 10 14 17t15 11q20 12 42 4q30 -10 45 -46q8 -19 14 -48q7 -37 13 -114l2 -20q2 5 2 6q85 190 146 302q10 18 30 24t38 -4t24 -30t-4 -38q-59 -109 -142 -294q-1 -3 -6 -15l-11 -26
q-7 -15 -13 -27q-14 -29 -27 -46q-26 -35 -60 -37q-28 -1 -47 22q-8 10 -12 24q-6 16 -10 44q-3 21 -10 107q-3 34 -4 45q-62 -116 -83 -151q-34 -59 -60 -90q-17 -22 -32 -34q-33 -25 -66 -13q-20 8 -28 27q-3 6 -4 12q-1 5 -1 11v18q1 15 3 41q1 12 2 27l3 23q1 9 1 11
q6 126 -11 305q-2 21 11.5 37t34 18t36.5 -11.5t18 -33.5z" />
    <glyph glyph-name="x" unicode="x" horiz-adv-x="415" 
d="M162 244q-52 81 -113 192q-10 18 -4 38t24 30t38 4t30 -24l88 -152q51 77 83 153q8 19 27.5 26.5t38.5 -0.5t26.5 -27.5t-0.5 -38.5q-43 -101 -117 -205q63 -96 128 -180q13 -16 10.5 -37t-18.5 -33.5t-37 -10t-33 18.5q-59 74 -114 157l-120 -144q-13 -16 -33.5 -18
t-36.5 11.5t-18 34t12 36.5q106 126 139 169z" />
    <glyph glyph-name="y" unicode="y" horiz-adv-x="410" 
d="M174 451q-20 -114 -23 -177q-7 -108 17 -151l1 -1q1 -1 5 -2l9 -4q19 -5 37 20q12 17 41 86q4 11 10 26q6 30 15 60q2 6 23 79q8 27 9 32q1 4 3 6q2 6 5 11q4 5 9 9q16 14 37 12q27 -2 40 -27q4 -7 5 -16v-13q0 -2 -1 -5q0 -2 -1 -6q-18 -84 -48 -170q-9 -43 -15 -101
q0 -2 -3.5 -36t-5 -46.5t-8 -45t-14 -51.5t-20.5 -43.5t-30 -41.5q-21 -23 -56 -42.5t-72 -27.5q-27 -4 -54.5 -5t-57 15.5t-46.5 47.5q-11 20 -12 49v15q0 6 -1 9q-2 20 10.5 36.5t33 19t37 -10t19.5 -33.5q1 -8 1 -19v-6v-7v-6q10 -16 48 -8q23 6 45 18t33 23
q29 32 41 102q-39 -18 -83 -5q-54 15 -76 52q-39 69 -30 208q4 71 25 189q3 20 20 32t37.5 8.5t32.5 -20.5t8 -38z" />
    <glyph glyph-name="z" unicode="z" horiz-adv-x="447" 
d="M76 493l82 5q119 7 122 7q23 1 35 1q11 -1 19 -3q9 -2 16 -7q18 -11 23 -33q3 -13 -2 -27q-1 -5 -4 -11q-3 -7 -9 -17q-9 -16 -28 -45l-82 -123q-52 -79 -76 -124l-7 -12q20 1 54 4q36 3 97 12q64 9 83 11q20 2 36 -11t18.5 -33.5t-10.5 -36.5t-34 -19q-18 -2 -82 -10.5
t-98 -12.5q-56 -5 -89 -4q-23 1 -39 5q-32 9 -45 35q-9 18 -5 41q2 11 7 26q9 22 26 54q27 47 81 130l71 108l-72 -5l-82 -5q-21 -1 -36.5 12.5t-16.5 34.5t12.5 36.5t34.5 16.5z" />
    <glyph glyph-name="braceleft" unicode="{" horiz-adv-x="319" 
d="M276 642q-68 -21 -88 -46q-10 -12 -6 -36q1 -13 7 -36q9 -35 11 -45q15 -67 -1 -119q-10 -33 -52 -71q-28 -25 -57 -42l-6 -4l23 -27l10 -11q8 -9 12 -17q10 -25 11 -51.5t-2.5 -40.5t-10.5 -35q-9 -27 -10.5 -37.5t1.5 -24.5q17 -56 64.5 -98.5t106.5 -58.5
q20 -5 30.5 -23t5 -38t-23.5 -30.5t-38 -4.5q-82 21 -149 81t-92 142q-15 49 9 118q1 3 1 5q12 35 7 50l-6 7l-26 30q-18 21 -28 37q-7 12 -11 23q-8 22 -1 42q12 36 56 47q12 3 15 3q21 14 42 32q21 20 23 27q8 27 0 68q-2 8 -11 41q-7 29 -10 48q-8 66 28 112
q39 48 136 79q20 6 38 -3.5t24.5 -29.5t-3 -38t-29.5 -25z" />
    <glyph glyph-name="bar" unicode="|" horiz-adv-x="156" 
d="M146 700q1 -31 6 -128.5t6.5 -143.5t3.5 -125t1 -145t-5 -131q-1 -21 -16.5 -34.5t-36.5 -12.5t-34.5 16.5t-12.5 36.5q4 63 5 127t-1 141.5t-3.5 122.5t-6.5 142.5t-6 129.5q-1 20 13 35.5t34.5 16.5t36 -13t16.5 -35z" />
    <glyph glyph-name="braceright" unicode="}" horiz-adv-x="353" 
d="M10 720q92 -25 133 -67q39 -38 44 -99q3 -35 1 -58q-2 -22 2 -47t19 -50q3 -7 9 -14.5t11 -12.5t15.5 -13t15.5 -11l19 -14l19 -15h1q3 0 16 -6q46 -21 45 -64q0 -9 -3 -17t-6 -12l-3 -3q-3 -4 -7 -8q-5 -5 -14 -13l-37 -32q-23 -20 -35 -33q-5 -5 -8 -8.5t-4 -4.5l-1 -1
q-4 -11 -6 -38q-4 -55 -4 -57q-6 -36 -18 -73t-34.5 -75t-59.5 -65.5t-84 -34.5q-22 -4 -49 2q-1 0 -17 3q-7 2 -11 2q-21 3 -33.5 19.5t-10 37t19 33t36.5 10.5q9 -1 20 -4q1 0 6.5 -1.5t8.5 -1.5q10 -2 14 -2q44 7 74 53.5t38 110.5q1 7 2 15t1.5 18.5t0.5 17.5
q4 43 13 67q8 20 34 47q15 15 41 38l7 6q-26 18 -38.5 27.5t-35.5 32t-36 44.5q-15 28 -23.5 60.5t-9.5 56.5v48q-1 23 -1 32q-2 24 -15 36q-23 23 -88 42q-20 5 -30.5 23.5t-5 38t24 30t37.5 4.5z" />
    <glyph glyph-name="asciitilde" unicode="~" horiz-adv-x="601" 
d="M-52 173q14 88 67 134q62 54 157 34q41 -9 99 -48q43 -29 63 -35q55 -15 103.5 13t75.5 87q8 19 27.5 26t38.5 -1.5t26 -28t-2 -38.5q-39 -86 -119 -133t-176 -21q-36 10 -94 49q-40 27 -62 32q-47 10 -72 -12t-34 -74q-3 -21 -20 -33t-37.5 -8.5t-32.5 20.5t-8 37z" />
    <glyph glyph-name="exclamdown" unicode="&#xa1;" horiz-adv-x="294" 
d="M262 311q-16 -68 -31 -140l-34 -171l-27 -140q-4 -20 -21 -31.5t-37.5 -7.5t-32 21t-7.5 38l28 140l34 173l30 140q5 21 22.5 31.5t38 6t31 -22t6.5 -37.5zM301 472q0 -21 -14.5 -35.5t-35.5 -14.5t-35.5 14.5t-14.5 35.5t14.5 35.5t35.5 14.5t35.5 -14.5t14.5 -35.5z
" />
    <glyph glyph-name="cent" unicode="&#xa2;" 
d="M141 118l94 302q-20 -10 -40 -27q-60 -54 -81.5 -128t11.5 -128q7 -11 16 -19zM370 507q63 -41 92 -140q6 -20 -4 -38t-30 -24t-38 4t-24 30q-12 42 -31 65l-100 -319q34 0 55.5 9t47.5 35q14 15 35 15t35.5 -14.5t14.5 -35.5t-15 -35q-42 -43 -84.5 -59.5t-103.5 -14.5
q-8 0 -16 1l-19 -57q-6 -19 -24.5 -28.5t-38 -3t-29 25t-2.5 38.5l18 56q-41 24 -68 66q-31 47 -36 103.5t12 108t47 96.5q29 45 66 77q70 61 143 65l34 93q8 19 26.5 27.5t38 1t28 -26t1.5 -38.5z" />
    <glyph glyph-name="sterling" unicode="&#xa3;" horiz-adv-x="504" 
d="M396 489q-24 76 -77 107q-52 31 -113 -2q-19 -10 -35.5 -24t-21.5 -24q-20 -43 3 -123l10 -33q85 2 155 1q21 0 35 -15t14 -36t-15 -35t-36 -14q-60 1 -127 0q3 -21 4 -40q2 -66 -20 -130h13q27 -1 51 -5t57 -12t34 -8q62 -14 123 0q20 4 37.5 -7t22 -31t-6.5 -37.5
t-31 -22.5q-83 -18 -166 0q-12 2 -31.5 7t-31 7.5t-28.5 5.5q-17 2 -34 3q-16 1 -37 -4h-1q-2 -2 -6.5 -5t-6.5 -4q-15 -11 -29 -13q-37 -8 -59 21q-21 27 -10 59q5 14 18 27l12 12q32 69 30 135q-1 17 -5 38q-26 -1 -60 -3q-21 -1 -36.5 13t-16.5 34.5t13 36t34 16.5l37 2
l-3 9q-33 117 4 193q14 30 43 54q28 25 56 40q111 60 212 0q85 -51 122 -161q6 -20 -3.5 -38.5t-29 -25t-38 3t-25.5 28.5z" />
    <glyph glyph-name="brokenbar" unicode="&#xa6;" horiz-adv-x="127" 
d="M132 703q1 -38 1 -114t1 -113q0 -21 -14 -36t-35 -15t-36 14t-15 35q-1 37 -1 113t-1 114q0 21 14 36t35 15t36 -14t15 -35zM133 252q-2 -46 -3 -72q-1 -38 -1.5 -85t-0.5 -72q0 -21 -15 -35t-36 -14t-35 15t-14 36q0 24 0.5 73t1.5 87.5t3 72.5q1 21 17 34.5t36.5 12.5
t34 -17t12.5 -36z" />
    <glyph glyph-name="dieresis" unicode="&#xa8;" horiz-adv-x="267" 
d="M99 638q0 -21 -14.5 -35.5t-35.5 -14.5t-35.5 14.5t-14.5 35.5t14.5 35.5t35.5 14.5t35.5 -14.5t14.5 -35.5zM274 643q0 -21 -14.5 -35.5t-35.5 -14.5t-35.5 14.5t-14.5 35.5t14.5 35.5t35.5 14.5t35.5 -14.5t14.5 -35.5z" />
    <glyph glyph-name="copyright" unicode="&#xa9;" horiz-adv-x="679" 
d="M519 680q20 1 35 -13q27 -23 43.5 -40.5t36.5 -45.5t32 -59q26 -74 19.5 -150.5t-40 -151t-89.5 -132.5q-54 -56 -125 -82q-49 -18 -142 -13q-142 7 -232 94q-52 49 -77.5 117t-24.5 136.5t23 135.5q35 103 113 177t185 85q12 1 23 1.5t23 -0.5t19 -1.5t20 -3.5t17 -4
l19 -5q15 -4 18 -5q61 -15 104 -40zM438 424q-23 61 -57 64t-73 -36q-42 -44 -47 -94q-5 -46 32 -72q27 -18 55 -22.5t67 1.5q21 2 37 -11t18.5 -33.5t-10.5 -36.5t-33 -19q-45 -8 -95 0t-95 39q-44 29 -62.5 72.5t-13.5 91.5q9 85 75 153q72 74 153 67q48 -4 85 -37.5
t58 -92.5q7 -19 -1.5 -38t-28 -26t-38.5 1.5t-26 28.5zM520 554q-30 28 -59 43.5t-70 26.5q-5 1 -17 4t-15 4t-12.5 3t-12.5 2.5t-10.5 1.5t-12 0.5t-11.5 -0.5t-14 -1q-72 -7 -129 -60.5t-84 -133.5q-27 -77 -13.5 -156t65.5 -129q64 -61 170 -66q73 -4 102 7
q48 17 89.5 60t68 101.5t31.5 118.5q5 59 -14 106q-12 30 -35 58q-10 3 -17 10z" />
    <glyph glyph-name="periodcentered" unicode="&#xb7;" horiz-adv-x="152" 
d="M159 333q0 -21 -14.5 -35.5t-35.5 -14.5t-35.5 14.5t-14.5 35.5t14.5 35.5t35.5 14.5t35.5 -14.5t14.5 -35.5z" />
    <glyph glyph-name="questiondown" unicode="&#xbf;" horiz-adv-x="462" 
d="M366 291q-2 -6 -10 -26.5t-17 -40t-18 -33.5q-13 -21 -29 -40t-40 -43l-26 -27q-44 -47 -52 -93q-9 -56 25 -75q40 -22 107 0q12 3 18.5 6t14.5 9l11 8q4 2 15.5 13.5t19.5 18.5q16 14 36.5 13t34.5 -16.5t13 -36t-16 -34.5q-5 -4 -19 -17.5t-20 -18.5l-18 -13
q-13 -9 -27 -15.5t-33 -12.5q-107 -34 -185 8q-45 25 -65.5 71.5t-9.5 107.5q12 76 77 145q9 10 30 31t32.5 34.5t21.5 28.5q9 16 20 45t19 45q8 19 27.5 26t38.5 -1.5t26 -28t-2 -38.5zM381 475q0 -21 -14.5 -35.5t-35.5 -14.5t-35.5 14.5t-14.5 35.5t14.5 35.5t35.5 14.5
t35.5 -14.5t14.5 -35.5z" />
    <glyph glyph-name="atilde" unicode="&#xe3;" horiz-adv-x="485" 
d="M337 247v5q0 4 2 13q4 28 19 45q-9 68 -26 89q-19 24 -83 25q-78 2 -122 -87q-21 -41 -28.5 -92t-1.5 -95q8 -50 43 -68q34 -17 74 9q40 27 96 113q24 37 27 43zM344 80q-37 -46 -74 -71q-43 -29 -89.5 -33t-85.5 17q-39 20 -64 57q-25 38 -32 86q-9 59 1 124
q9 66 37 122q32 64 86 103.5t128 38.5q111 -2 159 -62q36 -45 49 -152q1 -13 -3 -24q1 -8 1 -17q0 -12 -6 -34q-12 -50 -13 -68q-4 -41 4 -64t37 -54q14 -15 13 -36t-16 -35t-36 -13t-35 16q-43 46 -57 88q-2 6 -4 11zM73 619q1 2 1.5 3.5t0.5 3t1 5.5t3 10q8 33 30 51
q38 28 89 19q24 -5 67 -24q55 -25 70 -19q1 2 3 4q1 2 2 3.5t2.5 4t2.5 3.5q6 10 11 17q13 16 34 18t37 -11t18 -34t-11 -37q-2 -2 -5 -6l-8 -13q-17 -25 -38 -36q-20 -11 -42.5 -13.5t-44.5 2.5t-35 10t-31 13q-4 2 -6 2q-32 15 -45 17q-2 1 -4 1q-5 -20 -8 -30
q-8 -20 -27 -28t-38.5 -0.5t-27.5 26.5t-1 38z" />
    <glyph glyph-name="ccedilla" unicode="&#xe7;" horiz-adv-x="439" 
d="M347 361q-2 7 -2 18l-1 5v7l-1 8q-20 42 -71 29q-28 -7 -56 -25.5t-44 -39.5q-41 -54 -54.5 -109.5t-4.5 -94t31 -63.5q31 -35 74 -28q57 9 112 86q12 17 32.5 20.5t37.5 -8.5t20.5 -32.5t-8.5 -37.5q-80 -111 -178 -127h-2q-1 -2 -3 -4l-22 -29q49 -3 71 -25
q43 -42 22 -83q-14 -28 -59 -46q-49 -19 -120 -26q-12 -1 -21.5 7t-11 20t6.5 21.5t20 11.5q64 6 104 21q23 9 28 17q-1 5 -11 15q-6 6 -37 8l-15 -7q-13 -5 -23 -6q-23 -2 -36 17q-8 10 -6 23q1 5 3 11q3 6 8 14q7 12 20 31l10 13q-52 14 -91 57q-40 45 -54 109t5.5 139.5
t71.5 144.5q27 35 69 63q41 28 87 39q55 14 106 -5q51 -18 79 -77q9 -18 11 -44q0 -1 1 -15v-9q4 -20 -8.5 -36.5t-33 -20t-37 9t-19.5 33.5z" />
    <glyph glyph-name="egrave" unicode="&#xe8;" horiz-adv-x="467" 
d="M374 386l-1 1q-8 7 -23.5 12.5t-32.5 4.5q-31 -1 -68.5 -22.5t-67.5 -55.5q-4 -6 -8 -11q131 -4 190 57q8 8 11 14zM62 324q16 35 43 66q41 49 97 80.5t111 33.5q35 1 70.5 -10.5t59.5 -34.5q33 -33 31 -75q-2 -43 -39 -82q-98 -101 -296 -85q2 -13 7 -24q23 -51 96 -66
q46 -10 155 -5q21 1 36.5 -13t16.5 -34.5t-13 -36t-34 -16.5q-119 -6 -182 7q-123 26 -167 124q-19 42 -15 89q-17 19 -12 44q6 29 35 38zM214 727l114 -117q14 -15 14 -35.5t-15 -35t-35.5 -14.5t-35.5 15l-114 117q-14 15 -14 35.5t15 35t35.5 14.5t35.5 -15z" />
    <glyph glyph-name="eacute" unicode="&#xe9;" horiz-adv-x="458" 
d="M366 360q-2 5 -10 12q-17 16 -45.5 22t-50.5 -1q-56 -20 -86 -79q98 -15 171 28q17 10 21 18zM70 325q19 55 60 99t96 63q54 17 107 4.5t89 -44.5q48 -41 44 -94q-5 -58 -71 -97q-103 -61 -237 -41q10 -41 46 -67q34 -23 72.5 -29t106.5 -6q21 0 35.5 -14.5t14.5 -35.5
t-14.5 -35.5t-35.5 -14.5q-39 0 -58 1t-54.5 5t-65.5 16t-57 31q-48 33 -70.5 80t-21.5 100q-19 19 -13 46q6 22 27 33zM146 619q71 59 125 119q14 15 34.5 16t36 -13t16.5 -34.5t-13 -36.5q-59 -64 -135 -127q-16 -14 -36.5 -12t-34 18t-11.5 36.5t18 33.5z" />
    <glyph glyph-name="ntilde" unicode="&#xf1;" horiz-adv-x="475" 
d="M203 485q76 27 144 -1q120 -48 111 -218q-2 -47 -17 -118q-16 -84 -17 -92q-3 -20 -19.5 -32.5t-37 -10t-33 19t-10.5 37.5q2 11 19 98q13 67 15 103q5 99 -49 121q-47 18 -114 -20q-6 -4 -12 -5q-11 -56 -24.5 -163.5t-20.5 -146.5q-3 -20 -19.5 -32.5t-37 -9t-33 20
t-8.5 37.5q5 35 15.5 123t23 157t30.5 128q7 20 25 29.5t38 3.5q22 -7 31 -29zM70 628q40 78 98 94q45 13 104 -15q11 -5 33 -16.5t34 -15.5q21 -7 35 -2q1 1 2 3q1 1 2 3l2 4q1 2 2 3l11 16q14 16 34.5 18t36.5 -11.5t18 -34t-11 -36.5q-2 -1 -4 -6l-8 -12q-17 -24 -37 -35
q-53 -26 -116 -4q-12 4 -27 11t-30 15l-19 10q-25 11 -35 9q-16 -5 -37 -44q-9 -18 -29 -24.5t-38 3t-24.5 29.5t3.5 38z" />
    <glyph glyph-name="divide" unicode="&#xf7;" horiz-adv-x="529" 
d="M54 300q133 -2 432 -2q21 0 35.5 -14.5t14.5 -35.5t-14.5 -35.5t-35.5 -14.5q-299 0 -434 2q-20 0 -34.5 15t-14.5 35.5t15 35t36 14.5zM338 455q0 -21 -14.5 -35.5t-35.5 -14.5t-35.5 14.5t-14.5 35.5t14.5 35.5t35.5 14.5t35.5 -14.5t14.5 -35.5zM323 76
q0 -21 -14.5 -35.5t-35.5 -14.5t-35.5 14.5t-14.5 35.5t14.5 35.5t35.5 14.5t35.5 -14.5t14.5 -35.5z" />
    <glyph glyph-name="quoteleft" unicode="&#x2018;" horiz-adv-x="198" 
d="M173 683q-25 -54 -40 -113q-9 -37 -9 -60q0 -10 1 -16q3 0 6 -1q38 -9 40 -10q20 -7 29 -25.5t2 -38t-25.5 -28.5t-37.5 -2q-4 1 -7 1.5t-9.5 2t-13.5 2.5q-36 9 -56 29q-29 30 -29 86q0 36 12 85q17 67 47 130q9 19 28.5 26t38 -2t25.5 -28.5t-2 -37.5z" />
    <glyph glyph-name="quoteright" unicode="&#x2019;" horiz-adv-x="183" 
d="M146 742q49 -90 44 -159q-4 -62 -58 -151q-11 -18 -31 -23t-38 6t-23 31t6 38q41 68 44 106q3 40 -32 104q-10 18 -4 38t24 30t38 4t30 -24z" />
    <glyph glyph-name="quotedblleft" unicode="&#x201c;" horiz-adv-x="297" 
d="M140 679q-38 -50 -40 -100t24 -118q7 -20 -2 -38.5t-28.5 -25.5t-38 2t-25.5 28q-21 61 -28 106.5t6 99.5t52 106q12 17 32.5 19.5t37.5 -9.5t19.5 -32.5t-9.5 -37.5zM298 671q-21 -52 -21 -97t22 -94q9 -19 2 -38.5t-26 -28t-38.5 -1.5t-27.5 26q-60 131 -3 271
q8 19 27 27t38 0t27 -27t0 -38z" />
    <glyph glyph-name="quotedblright" unicode="&#x201d;" horiz-adv-x="300" 
d="M292 716q21 -102 12 -158q-9 -58 -62 -147q-10 -18 -30.5 -23.5t-38 5t-23 31t5.5 37.5q43 74 49 112t-11 123q-4 20 7.5 37.5t31.5 21.5t37.5 -7.5t21.5 -31.5zM102 716q22 -104 19 -149q-4 -63 -52 -149q-11 -18 -31 -23.5t-38 5t-23.5 30.5t4.5 38q37 65 40 106
q2 28 -17 122q-4 20 7 37.5t31.5 21.5t38 -7t21.5 -32z" />
    <glyph glyph-name="Euro" unicode="&#x20ac;" horiz-adv-x="658" 
d="M567 497q-11 40 -38 69.5t-60.5 43.5t-72 11t-70.5 -26q-49 -34 -80 -98q116 -3 185 -7q21 -1 34.5 -17t12.5 -36.5t-17 -34t-36 -12.5q-72 5 -210 8q-5 -33 -6 -65q43 1 121 3t110 3q21 0 36 -14t15 -35t-14 -36t-35 -15q-33 -1 -106.5 -3t-112.5 -2q20 -68 63.5 -112
t93.5 -55q22 -7 46.5 -1.5t47 19.5t42 46.5t30.5 80.5q5 20 23 30.5t38 6t30.5 -22.5t6.5 -38q-31 -126 -110 -183t-176 -36q-84 19 -150 91t-89 174l-47 2q-20 1 -34 16.5t-13 36t16.5 34.5t36.5 13q15 -1 32 -2q0 33 4 66q-32 1 -59 2q-21 1 -35 16.5t-13 36t16.5 34.5
t35.5 13q44 -2 79 -3q42 117 130 178q57 39 121.5 44t118.5 -19t96 -71t59 -106q6 -20 -4 -38t-30 -24t-38 4t-24 30z" />
    <glyph glyph-name="uni3000" unicode="&#x3000;" horiz-adv-x="1000" 
 />
  </font>
</defs>
</svg>
